<svg height="512pt" viewBox="-10 0 511 512" width="512pt" xmlns="http://www.w3.org/2000/svg"><path d="m228.828125 128.925781v-75.59375h-179.335937v75.589844c-11.9375 10.136719-22.152344 22.257813-30.09375 35.832031-12.363282 21.132813-18.898438 45.308594-18.898438 69.914063v277.332031h277.316406v-277.332031c0-24.605469-6.535156-48.78125-18.898437-69.914063-7.9375-13.574218-18.152344-25.695312-30.089844-35.828125zm18.953125 103.40625h-217.242188c.789063-36.15625 19.800782-69.875 50.28125-89.332031h116.679688c30.480469 19.457031 49.492188 53.175781 50.28125 89.332031zm-217.28125 171.8125c18.121094 17.832031 42.964844 28.855469 70.335938 28.855469h146.980468v49h-217.316406zm217.320312-1.144531h-75.503906c17.832032-18.121094 28.851563-42.960938 28.851563-70.332031 0-27.371094-11.019531-52.214844-28.851563-70.332031h75.503906zm-48.992187-290h-119.335937v-29.667969h119.335937zm-168.328125 149.332031h70.335938c38.78125 0 70.332031 31.550781 70.332031 70.332031 0 38.785157-31.550781 70.335938-70.332031 70.335938s-70.335938-31.550781-70.335938-70.335938zm0 0"/><path d="m491.152344 113h-42.667969v-60.667969c0-28.855469-23.476563-52.332031-52.332031-52.332031-28.855469 0-52.332032 23.476562-52.332032 52.332031v60.667969h-42.667968v104.667969h42.667968v241.667969l39.5 52.664062h25.664063l39.5-52.664062v-241.667969h42.667969zm-30 74.667969h-130v-44.667969h130zm-87.332032 30h44.664063v231.667969l-22.332031 29.777343-22.332032-29.777343zm22.332032-187.667969c12.316406 0 22.332031 10.019531 22.332031 22.332031v60.667969h-44.664063v-60.667969c0-12.3125 10.015626-22.332031 22.332032-22.332031zm0 0"/><path d="m85.835938 370h30v-22.332031h22.332031v-30h-22.332031v-22.335938h-30v22.335938h-22.335938v30h22.335938zm0 0"/></svg>